<mxfile host="Electron" modified="2024-05-09T17:11:51.498Z" agent="Mozilla/5.0 (Macintosh; Intel Mac OS X 10_15_7) AppleWebKit/537.36 (KHTML, like Gecko) draw.io/22.1.2 Chrome/114.0.5735.289 Electron/25.9.4 Safari/537.36" etag="znz4944l-dQwILBzvVJR" version="22.1.2" type="device">
  <diagram name="第 1 页" id="Hya04mcDLVwpOjoKJ7xv">
    <mxGraphModel dx="1207" dy="774" grid="0" gridSize="10" guides="1" tooltips="1" connect="1" arrows="1" fold="1" page="0" pageScale="1" pageWidth="2339" pageHeight="3300" background="none" math="0" shadow="0">
      <root>
        <mxCell id="0" />
        <mxCell id="1" parent="0" />
        <mxCell id="9Tg265FxgUjcCNJgwRC9-1" value="" style="rounded=0;whiteSpace=wrap;html=1;sketch=1;hachureGap=4;jiggle=2;curveFitting=1;fontFamily=Architects Daughter;fontSource=https%3A%2F%2Ffonts.googleapis.com%2Fcss%3Ffamily%3DArchitects%2BDaughter;fontSize=20;fillColor=#f5f5f5;fontColor=#333333;strokeColor=#666666;" vertex="1" parent="1">
          <mxGeometry x="240" y="120" width="590" height="660" as="geometry" />
        </mxCell>
        <mxCell id="9Tg265FxgUjcCNJgwRC9-2" value="" style="rounded=0;whiteSpace=wrap;html=1;sketch=1;hachureGap=4;jiggle=2;curveFitting=1;fontFamily=Architects Daughter;fontSource=https%3A%2F%2Ffonts.googleapis.com%2Fcss%3Ffamily%3DArchitects%2BDaughter;fontSize=20;fillColor=#60a917;fontColor=#ffffff;strokeColor=#2D7600;" vertex="1" parent="1">
          <mxGeometry x="670" y="140" width="130" height="225" as="geometry" />
        </mxCell>
        <mxCell id="9Tg265FxgUjcCNJgwRC9-4" value="&lt;font style=&quot;font-size: 18px;&quot;&gt;OpenAI&lt;/font&gt;" style="rounded=1;whiteSpace=wrap;html=1;sketch=1;hachureGap=4;jiggle=2;curveFitting=1;fontFamily=Architects Daughter;fontSource=https%3A%2F%2Ffonts.googleapis.com%2Fcss%3Ffamily%3DArchitects%2BDaughter;fontSize=20;" vertex="1" parent="1">
          <mxGeometry x="675" y="168" width="120" height="60" as="geometry" />
        </mxCell>
        <mxCell id="9Tg265FxgUjcCNJgwRC9-5" value="&lt;font style=&quot;font-size: 18px;&quot;&gt;ZhipuAI&lt;/font&gt;" style="rounded=1;whiteSpace=wrap;html=1;sketch=1;hachureGap=4;jiggle=2;curveFitting=1;fontFamily=Architects Daughter;fontSource=https%3A%2F%2Ffonts.googleapis.com%2Fcss%3Ffamily%3DArchitects%2BDaughter;fontSize=20;" vertex="1" parent="1">
          <mxGeometry x="675" y="234" width="120" height="60" as="geometry" />
        </mxCell>
        <mxCell id="9Tg265FxgUjcCNJgwRC9-6" value="&lt;font style=&quot;font-size: 18px;&quot;&gt;DeepSeek&lt;/font&gt;" style="rounded=1;whiteSpace=wrap;html=1;sketch=1;hachureGap=4;jiggle=2;curveFitting=1;fontFamily=Architects Daughter;fontSource=https%3A%2F%2Ffonts.googleapis.com%2Fcss%3Ffamily%3DArchitects%2BDaughter;fontSize=20;" vertex="1" parent="1">
          <mxGeometry x="675" y="300" width="120" height="60" as="geometry" />
        </mxCell>
        <mxCell id="9Tg265FxgUjcCNJgwRC9-7" value="LLM" style="text;html=1;strokeColor=none;fillColor=none;align=center;verticalAlign=middle;whiteSpace=wrap;rounded=0;fontSize=20;fontFamily=Architects Daughter;" vertex="1" parent="1">
          <mxGeometry x="705" y="140" width="60" height="30" as="geometry" />
        </mxCell>
        <mxCell id="9Tg265FxgUjcCNJgwRC9-10" value="" style="rounded=0;whiteSpace=wrap;html=1;sketch=1;hachureGap=4;jiggle=2;curveFitting=1;fontFamily=Architects Daughter;fontSource=https%3A%2F%2Ffonts.googleapis.com%2Fcss%3Ffamily%3DArchitects%2BDaughter;fontSize=20;fillColor=#60a917;fontColor=#ffffff;strokeColor=#2D7600;" vertex="1" parent="1">
          <mxGeometry x="670" y="392" width="130" height="180" as="geometry" />
        </mxCell>
        <mxCell id="9Tg265FxgUjcCNJgwRC9-11" value="VectorDB" style="text;html=1;strokeColor=none;fillColor=none;align=center;verticalAlign=middle;whiteSpace=wrap;rounded=0;fontSize=20;fontFamily=Architects Daughter;" vertex="1" parent="1">
          <mxGeometry x="675" y="392" width="120" height="30" as="geometry" />
        </mxCell>
        <mxCell id="9Tg265FxgUjcCNJgwRC9-12" value="&lt;font style=&quot;font-size: 18px;&quot;&gt;Chroma&lt;/font&gt;" style="rounded=1;whiteSpace=wrap;html=1;sketch=1;hachureGap=4;jiggle=2;curveFitting=1;fontFamily=Architects Daughter;fontSource=https%3A%2F%2Ffonts.googleapis.com%2Fcss%3Ffamily%3DArchitects%2BDaughter;fontSize=20;" vertex="1" parent="1">
          <mxGeometry x="675" y="422" width="120" height="60" as="geometry" />
        </mxCell>
        <mxCell id="9Tg265FxgUjcCNJgwRC9-13" value="&lt;font style=&quot;font-size: 18px;&quot;&gt;Tencent&lt;/font&gt;" style="rounded=1;whiteSpace=wrap;html=1;sketch=1;hachureGap=4;jiggle=2;curveFitting=1;fontFamily=Architects Daughter;fontSource=https%3A%2F%2Ffonts.googleapis.com%2Fcss%3Ffamily%3DArchitects%2BDaughter;fontSize=20;" vertex="1" parent="1">
          <mxGeometry x="675" y="492" width="120" height="60" as="geometry" />
        </mxCell>
        <mxCell id="9Tg265FxgUjcCNJgwRC9-14" value="" style="rounded=0;whiteSpace=wrap;html=1;sketch=1;hachureGap=4;jiggle=2;curveFitting=1;fontFamily=Architects Daughter;fontSource=https%3A%2F%2Ffonts.googleapis.com%2Fcss%3Ffamily%3DArchitects%2BDaughter;fontSize=20;fillColor=#60a917;fontColor=#ffffff;strokeColor=#2D7600;" vertex="1" parent="1">
          <mxGeometry x="670" y="590" width="130" height="180" as="geometry" />
        </mxCell>
        <mxCell id="9Tg265FxgUjcCNJgwRC9-15" value="DataBase" style="text;html=1;strokeColor=none;fillColor=none;align=center;verticalAlign=middle;whiteSpace=wrap;rounded=0;fontSize=20;fontFamily=Architects Daughter;" vertex="1" parent="1">
          <mxGeometry x="675" y="590" width="120" height="30" as="geometry" />
        </mxCell>
        <mxCell id="9Tg265FxgUjcCNJgwRC9-16" value="&lt;font style=&quot;font-size: 18px;&quot;&gt;Local&lt;/font&gt;" style="rounded=1;whiteSpace=wrap;html=1;sketch=1;hachureGap=4;jiggle=2;curveFitting=1;fontFamily=Architects Daughter;fontSource=https%3A%2F%2Ffonts.googleapis.com%2Fcss%3Ffamily%3DArchitects%2BDaughter;fontSize=20;" vertex="1" parent="1">
          <mxGeometry x="675" y="620" width="120" height="60" as="geometry" />
        </mxCell>
        <mxCell id="9Tg265FxgUjcCNJgwRC9-17" value="&lt;font style=&quot;font-size: 18px;&quot;&gt;Minio&lt;/font&gt;" style="rounded=1;whiteSpace=wrap;html=1;sketch=1;hachureGap=4;jiggle=2;curveFitting=1;fontFamily=Architects Daughter;fontSource=https%3A%2F%2Ffonts.googleapis.com%2Fcss%3Ffamily%3DArchitects%2BDaughter;fontSize=20;" vertex="1" parent="1">
          <mxGeometry x="675" y="690" width="120" height="60" as="geometry" />
        </mxCell>
        <mxCell id="9Tg265FxgUjcCNJgwRC9-19" value="" style="rounded=0;whiteSpace=wrap;html=1;sketch=1;hachureGap=4;jiggle=2;curveFitting=1;fontFamily=Architects Daughter;fontSource=https%3A%2F%2Ffonts.googleapis.com%2Fcss%3Ffamily%3DArchitects%2BDaughter;fontSize=20;fillColor=#fff2cc;strokeColor=#d6b656;" vertex="1" parent="1">
          <mxGeometry x="290" y="323" width="240" height="357" as="geometry" />
        </mxCell>
        <mxCell id="9Tg265FxgUjcCNJgwRC9-20" value="LangChain" style="text;html=1;strokeColor=none;fillColor=none;align=center;verticalAlign=middle;whiteSpace=wrap;rounded=0;fontSize=20;fontFamily=Architects Daughter;" vertex="1" parent="1">
          <mxGeometry x="380" y="330" width="60" height="30" as="geometry" />
        </mxCell>
        <mxCell id="9Tg265FxgUjcCNJgwRC9-21" value="&lt;font style=&quot;font-size: 24px;&quot;&gt;LangChain-Emoji&lt;/font&gt;" style="text;html=1;strokeColor=none;fillColor=none;align=center;verticalAlign=middle;whiteSpace=wrap;rounded=0;fontSize=20;fontFamily=Architects Daughter;" vertex="1" parent="1">
          <mxGeometry x="430" y="120" width="210" height="30" as="geometry" />
        </mxCell>
        <mxCell id="9Tg265FxgUjcCNJgwRC9-26" style="edgeStyle=orthogonalEdgeStyle;rounded=0;sketch=1;hachureGap=4;jiggle=2;curveFitting=1;orthogonalLoop=1;jettySize=auto;html=1;exitX=1;exitY=0.5;exitDx=0;exitDy=0;entryX=0;entryY=0.5;entryDx=0;entryDy=0;fontFamily=Architects Daughter;fontSource=https%3A%2F%2Ffonts.googleapis.com%2Fcss%3Ffamily%3DArchitects%2BDaughter;fontSize=16;" edge="1" parent="1" source="9Tg265FxgUjcCNJgwRC9-22" target="9Tg265FxgUjcCNJgwRC9-14">
          <mxGeometry relative="1" as="geometry">
            <Array as="points">
              <mxPoint x="540" y="720" />
              <mxPoint x="620" y="720" />
              <mxPoint x="620" y="680" />
            </Array>
          </mxGeometry>
        </mxCell>
        <mxCell id="9Tg265FxgUjcCNJgwRC9-22" value="&lt;font style=&quot;font-size: 20px;&quot;&gt;Data Init&lt;br&gt;&lt;/font&gt;" style="rounded=0;whiteSpace=wrap;html=1;sketch=1;hachureGap=4;jiggle=2;curveFitting=1;fontFamily=Architects Daughter;fontSource=https%3A%2F%2Ffonts.googleapis.com%2Fcss%3Ffamily%3DArchitects%2BDaughter;fontSize=20;fillColor=#dae8fc;strokeColor=#6c8ebf;" vertex="1" parent="1">
          <mxGeometry x="420" y="686" width="120" height="80" as="geometry" />
        </mxCell>
        <mxCell id="9Tg265FxgUjcCNJgwRC9-25" style="edgeStyle=orthogonalEdgeStyle;rounded=0;sketch=1;hachureGap=4;jiggle=2;curveFitting=1;orthogonalLoop=1;jettySize=auto;html=1;entryX=-0.015;entryY=0.55;entryDx=0;entryDy=0;entryPerimeter=0;fontFamily=Architects Daughter;fontSource=https%3A%2F%2Ffonts.googleapis.com%2Fcss%3Ffamily%3DArchitects%2BDaughter;fontSize=16;" edge="1" parent="1" target="9Tg265FxgUjcCNJgwRC9-10">
          <mxGeometry relative="1" as="geometry">
            <mxPoint x="540" y="700" as="sourcePoint" />
            <Array as="points">
              <mxPoint x="540" y="720" />
              <mxPoint x="620" y="720" />
              <mxPoint x="620" y="491" />
            </Array>
          </mxGeometry>
        </mxCell>
        <mxCell id="9Tg265FxgUjcCNJgwRC9-31" value="&lt;font style=&quot;font-size: 10px;&quot;&gt;0..数据初始化&lt;/font&gt;" style="text;html=1;strokeColor=none;fillColor=none;align=center;verticalAlign=middle;whiteSpace=wrap;rounded=0;fontSize=20;fontFamily=Architects Daughter;" vertex="1" parent="1">
          <mxGeometry x="540" y="720" width="70" height="30" as="geometry" />
        </mxCell>
        <mxCell id="9Tg265FxgUjcCNJgwRC9-32" value="&lt;font style=&quot;font-size: 20px;&quot;&gt;WatchConfig&lt;br&gt;&lt;/font&gt;" style="rounded=0;whiteSpace=wrap;html=1;sketch=1;hachureGap=4;jiggle=2;curveFitting=1;fontFamily=Architects Daughter;fontSource=https%3A%2F%2Ffonts.googleapis.com%2Fcss%3Ffamily%3DArchitects%2BDaughter;fontSize=20;fillColor=#dae8fc;strokeColor=#6c8ebf;" vertex="1" parent="1">
          <mxGeometry x="280" y="688" width="130" height="80" as="geometry" />
        </mxCell>
        <mxCell id="9Tg265FxgUjcCNJgwRC9-44" style="edgeStyle=orthogonalEdgeStyle;rounded=0;sketch=1;hachureGap=4;jiggle=2;curveFitting=1;orthogonalLoop=1;jettySize=auto;html=1;exitX=1;exitY=0.5;exitDx=0;exitDy=0;entryX=0;entryY=0.25;entryDx=0;entryDy=0;fontFamily=Architects Daughter;fontSource=https%3A%2F%2Ffonts.googleapis.com%2Fcss%3Ffamily%3DArchitects%2BDaughter;fontSize=16;" edge="1" parent="1" source="9Tg265FxgUjcCNJgwRC9-34" target="9Tg265FxgUjcCNJgwRC9-10">
          <mxGeometry relative="1" as="geometry" />
        </mxCell>
        <mxCell id="9Tg265FxgUjcCNJgwRC9-45" style="edgeStyle=orthogonalEdgeStyle;rounded=0;sketch=1;hachureGap=4;jiggle=2;curveFitting=1;orthogonalLoop=1;jettySize=auto;html=1;exitX=0.5;exitY=1;exitDx=0;exitDy=0;entryX=0.5;entryY=0;entryDx=0;entryDy=0;fontFamily=Architects Daughter;fontSource=https%3A%2F%2Ffonts.googleapis.com%2Fcss%3Ffamily%3DArchitects%2BDaughter;fontSize=16;" edge="1" parent="1" source="9Tg265FxgUjcCNJgwRC9-34" target="9Tg265FxgUjcCNJgwRC9-35">
          <mxGeometry relative="1" as="geometry" />
        </mxCell>
        <mxCell id="9Tg265FxgUjcCNJgwRC9-34" value="&lt;font style=&quot;font-size: 18px;&quot;&gt;Retriever&lt;/font&gt;" style="rounded=1;whiteSpace=wrap;html=1;sketch=1;hachureGap=4;jiggle=2;curveFitting=1;fontFamily=Architects Daughter;fontSource=https%3A%2F%2Ffonts.googleapis.com%2Fcss%3Ffamily%3DArchitects%2BDaughter;fontSize=20;" vertex="1" parent="1">
          <mxGeometry x="335" y="375.5" width="150" height="54.5" as="geometry" />
        </mxCell>
        <mxCell id="9Tg265FxgUjcCNJgwRC9-46" style="edgeStyle=orthogonalEdgeStyle;rounded=0;sketch=1;hachureGap=4;jiggle=2;curveFitting=1;orthogonalLoop=1;jettySize=auto;html=1;exitX=0.5;exitY=1;exitDx=0;exitDy=0;entryX=0.5;entryY=0;entryDx=0;entryDy=0;fontFamily=Architects Daughter;fontSource=https%3A%2F%2Ffonts.googleapis.com%2Fcss%3Ffamily%3DArchitects%2BDaughter;fontSize=16;" edge="1" parent="1" source="9Tg265FxgUjcCNJgwRC9-35" target="9Tg265FxgUjcCNJgwRC9-36">
          <mxGeometry relative="1" as="geometry" />
        </mxCell>
        <mxCell id="9Tg265FxgUjcCNJgwRC9-35" value="&lt;font style=&quot;font-size: 18px;&quot;&gt;PromptTemplate&lt;/font&gt;" style="rounded=1;whiteSpace=wrap;html=1;sketch=1;hachureGap=4;jiggle=2;curveFitting=1;fontFamily=Architects Daughter;fontSource=https%3A%2F%2Ffonts.googleapis.com%2Fcss%3Ffamily%3DArchitects%2BDaughter;fontSize=20;" vertex="1" parent="1">
          <mxGeometry x="335" y="450.5" width="150" height="59.5" as="geometry" />
        </mxCell>
        <mxCell id="9Tg265FxgUjcCNJgwRC9-58" style="edgeStyle=orthogonalEdgeStyle;rounded=0;sketch=1;hachureGap=4;jiggle=2;curveFitting=1;orthogonalLoop=1;jettySize=auto;html=1;exitX=0.5;exitY=1;exitDx=0;exitDy=0;entryX=0.5;entryY=0;entryDx=0;entryDy=0;fontFamily=Architects Daughter;fontSource=https%3A%2F%2Ffonts.googleapis.com%2Fcss%3Ffamily%3DArchitects%2BDaughter;fontSize=16;" edge="1" parent="1" source="9Tg265FxgUjcCNJgwRC9-36" target="9Tg265FxgUjcCNJgwRC9-57">
          <mxGeometry relative="1" as="geometry" />
        </mxCell>
        <mxCell id="9Tg265FxgUjcCNJgwRC9-36" value="&lt;font style=&quot;font-size: 18px;&quot;&gt;LanguageModel&lt;/font&gt;" style="rounded=1;whiteSpace=wrap;html=1;sketch=1;hachureGap=4;jiggle=2;curveFitting=1;fontFamily=Architects Daughter;fontSource=https%3A%2F%2Ffonts.googleapis.com%2Fcss%3Ffamily%3DArchitects%2BDaughter;fontSize=20;" vertex="1" parent="1">
          <mxGeometry x="335" y="530" width="150" height="60" as="geometry" />
        </mxCell>
        <mxCell id="9Tg265FxgUjcCNJgwRC9-43" style="edgeStyle=orthogonalEdgeStyle;rounded=0;sketch=1;hachureGap=4;jiggle=2;curveFitting=1;orthogonalLoop=1;jettySize=auto;html=1;exitX=0.5;exitY=1;exitDx=0;exitDy=0;entryX=0.5;entryY=0;entryDx=0;entryDy=0;fontFamily=Architects Daughter;fontSource=https%3A%2F%2Ffonts.googleapis.com%2Fcss%3Ffamily%3DArchitects%2BDaughter;fontSize=16;" edge="1" parent="1" source="9Tg265FxgUjcCNJgwRC9-37" target="9Tg265FxgUjcCNJgwRC9-19">
          <mxGeometry relative="1" as="geometry" />
        </mxCell>
        <mxCell id="9Tg265FxgUjcCNJgwRC9-37" value="" style="rounded=0;whiteSpace=wrap;html=1;sketch=1;hachureGap=4;jiggle=2;curveFitting=1;fontFamily=Architects Daughter;fontSource=https%3A%2F%2Ffonts.googleapis.com%2Fcss%3Ffamily%3DArchitects%2BDaughter;fontSize=20;fillColor=#dae8fc;strokeColor=#6c8ebf;" vertex="1" parent="1">
          <mxGeometry x="290" y="172" width="240" height="130" as="geometry" />
        </mxCell>
        <mxCell id="9Tg265FxgUjcCNJgwRC9-38" value="WebDemo" style="text;html=1;strokeColor=none;fillColor=none;align=center;verticalAlign=middle;whiteSpace=wrap;rounded=0;fontSize=20;fontFamily=Architects Daughter;" vertex="1" parent="1">
          <mxGeometry x="380" y="172" width="60" height="30" as="geometry" />
        </mxCell>
        <mxCell id="9Tg265FxgUjcCNJgwRC9-39" value="&lt;font style=&quot;font-size: 18px;&quot;&gt;streamlit&lt;/font&gt;" style="rounded=1;whiteSpace=wrap;html=1;sketch=1;hachureGap=4;jiggle=2;curveFitting=1;fontFamily=Architects Daughter;fontSource=https%3A%2F%2Ffonts.googleapis.com%2Fcss%3Ffamily%3DArchitects%2BDaughter;fontSize=20;" vertex="1" parent="1">
          <mxGeometry x="345" y="222" width="130" height="63" as="geometry" />
        </mxCell>
        <mxCell id="9Tg265FxgUjcCNJgwRC9-41" value="" style="shape=flexArrow;endArrow=classic;html=1;rounded=0;sketch=1;hachureGap=4;jiggle=2;curveFitting=1;fontFamily=Architects Daughter;fontSource=https%3A%2F%2Ffonts.googleapis.com%2Fcss%3Ffamily%3DArchitects%2BDaughter;fontSize=16;entryX=0;entryY=0.5;entryDx=0;entryDy=0;" edge="1" parent="1" target="9Tg265FxgUjcCNJgwRC9-37">
          <mxGeometry width="50" height="50" relative="1" as="geometry">
            <mxPoint x="170" y="237" as="sourcePoint" />
            <mxPoint x="190" y="210" as="targetPoint" />
          </mxGeometry>
        </mxCell>
        <mxCell id="9Tg265FxgUjcCNJgwRC9-42" value="prompt" style="text;html=1;strokeColor=none;fillColor=none;align=center;verticalAlign=middle;whiteSpace=wrap;rounded=0;fontSize=20;fontFamily=Architects Daughter;" vertex="1" parent="1">
          <mxGeometry x="200" y="192" width="60" height="30" as="geometry" />
        </mxCell>
        <mxCell id="9Tg265FxgUjcCNJgwRC9-48" style="edgeStyle=orthogonalEdgeStyle;rounded=0;sketch=1;hachureGap=4;jiggle=2;curveFitting=1;orthogonalLoop=1;jettySize=auto;html=1;exitX=1;exitY=0.5;exitDx=0;exitDy=0;entryX=0;entryY=0.469;entryDx=0;entryDy=0;entryPerimeter=0;fontFamily=Architects Daughter;fontSource=https%3A%2F%2Ffonts.googleapis.com%2Fcss%3Ffamily%3DArchitects%2BDaughter;fontSize=16;" edge="1" parent="1" source="9Tg265FxgUjcCNJgwRC9-36" target="9Tg265FxgUjcCNJgwRC9-2">
          <mxGeometry relative="1" as="geometry">
            <Array as="points">
              <mxPoint x="590" y="560" />
              <mxPoint x="590" y="246" />
            </Array>
          </mxGeometry>
        </mxCell>
        <mxCell id="9Tg265FxgUjcCNJgwRC9-52" value="&lt;font style=&quot;font-size: 10px;&quot;&gt;1. 表情包信息召回&lt;/font&gt;" style="text;html=1;strokeColor=none;fillColor=none;align=center;verticalAlign=middle;whiteSpace=wrap;rounded=0;fontSize=20;fontFamily=Architects Daughter;" vertex="1" parent="1">
          <mxGeometry x="485" y="365" width="100" height="30" as="geometry" />
        </mxCell>
        <mxCell id="9Tg265FxgUjcCNJgwRC9-54" value="&lt;span style=&quot;font-size: 10px;&quot;&gt;2. 选择最佳表情&lt;/span&gt;" style="text;html=1;strokeColor=none;fillColor=none;align=center;verticalAlign=middle;whiteSpace=wrap;rounded=0;fontSize=20;fontFamily=Architects Daughter;" vertex="1" parent="1">
          <mxGeometry x="485" y="522" width="100" height="30" as="geometry" />
        </mxCell>
        <mxCell id="9Tg265FxgUjcCNJgwRC9-59" style="edgeStyle=orthogonalEdgeStyle;rounded=0;sketch=1;hachureGap=4;jiggle=2;curveFitting=1;orthogonalLoop=1;jettySize=auto;html=1;exitX=1;exitY=0.5;exitDx=0;exitDy=0;entryX=0;entryY=0.25;entryDx=0;entryDy=0;fontFamily=Architects Daughter;fontSource=https%3A%2F%2Ffonts.googleapis.com%2Fcss%3Ffamily%3DArchitects%2BDaughter;fontSize=16;" edge="1" parent="1" source="9Tg265FxgUjcCNJgwRC9-57" target="9Tg265FxgUjcCNJgwRC9-14">
          <mxGeometry relative="1" as="geometry" />
        </mxCell>
        <mxCell id="9Tg265FxgUjcCNJgwRC9-62" style="edgeStyle=orthogonalEdgeStyle;rounded=0;sketch=1;hachureGap=4;jiggle=2;curveFitting=1;orthogonalLoop=1;jettySize=auto;html=1;exitX=0;exitY=0.5;exitDx=0;exitDy=0;fontFamily=Architects Daughter;fontSource=https%3A%2F%2Ffonts.googleapis.com%2Fcss%3Ffamily%3DArchitects%2BDaughter;fontSize=16;entryX=0;entryY=0.75;entryDx=0;entryDy=0;" edge="1" parent="1" source="9Tg265FxgUjcCNJgwRC9-57" target="9Tg265FxgUjcCNJgwRC9-37">
          <mxGeometry relative="1" as="geometry">
            <mxPoint x="70" y="420" as="targetPoint" />
          </mxGeometry>
        </mxCell>
        <mxCell id="9Tg265FxgUjcCNJgwRC9-57" value="&lt;span style=&quot;font-size: 18px;&quot;&gt;DataHandler&lt;/span&gt;" style="rounded=1;whiteSpace=wrap;html=1;sketch=1;hachureGap=4;jiggle=2;curveFitting=1;fontFamily=Architects Daughter;fontSource=https%3A%2F%2Ffonts.googleapis.com%2Fcss%3Ffamily%3DArchitects%2BDaughter;fontSize=20;" vertex="1" parent="1">
          <mxGeometry x="335" y="610" width="150" height="60" as="geometry" />
        </mxCell>
        <mxCell id="9Tg265FxgUjcCNJgwRC9-60" value="&lt;span style=&quot;font-size: 10px;&quot;&gt;3. 召回图片数据&lt;/span&gt;" style="text;html=1;strokeColor=none;fillColor=none;align=center;verticalAlign=middle;whiteSpace=wrap;rounded=0;fontSize=20;fontFamily=Architects Daughter;" vertex="1" parent="1">
          <mxGeometry x="485" y="610" width="100" height="30" as="geometry" />
        </mxCell>
        <mxCell id="9Tg265FxgUjcCNJgwRC9-63" value="&lt;font style=&quot;font-size: 10px;&quot;&gt;4.数据返回&lt;/font&gt;" style="text;html=1;strokeColor=none;fillColor=none;align=center;verticalAlign=middle;whiteSpace=wrap;rounded=0;fontSize=20;fontFamily=Architects Daughter;" vertex="1" parent="1">
          <mxGeometry x="269" y="437" width="60" height="30" as="geometry" />
        </mxCell>
      </root>
    </mxGraphModel>
  </diagram>
</mxfile>
